<?xml version="1.0" encoding="UTF-8"?>
<svg xmlns="http://www.w3.org/2000/svg" viewBox="0 0 1536 1536" height="1536" width="1536">
  <path style="fill:#606060" d="M831.999 591.999c0-44.16-35.841-80.001-80.001-80.001s-79.998 35.841-79.998 80.001 35.841 80.001 80.001 80.001 79.998-35.841 79.998-80.001zM255.999 0c-88.32 0-159.999 71.679-159.999 159.999v1215.999c0 88.32 71.679 159.999 159.999 159.999h992.001c88.32 0 159.999-71.679 159.999-159.999v-1215.999c0-88.32-71.679-159.999-159.999-159.999h-992.001zM752.001 159.999c238.719 0 432 193.281 432 432 0 124.479-52.512 236.799-136.959 315.519-43.2-32.673-83.52-64.671-106.56-87.999-68.769-68.799-180.159-68.799-248.961 0-52.128 52.161-64.641 129.279-37.761 193.281-191.361-44.481-333.759-216-333.759-420.801 0-238.719 193.278-432 432-432zM255.999 1296c0-44.16 35.841-80.001 80.001-80.001s80.001 35.841 80.001 80.001-35.841 80.001-80.001 80.001-80.001-35.841-80.001-80.001zM782.4 910.401c19.2-19.233 50.208-19.233 69.759 0 11.232 11.52 325.791 232.959 362.241 269.439 44.769 45.12 44.769 117.759 0 162.561-44.799 44.769-117.471 44.769-162.561 0-38.4-38.4-258.912-351.999-269.439-362.241-19.2-19.521-19.2-50.559 0-69.759z" />
</svg>
