<?xml version="1.0" encoding="UTF-8"?>
<svg xmlns="http://www.w3.org/2000/svg" version="1.1" width="2110" height="2110" viewBox="0 0 2110 2110">
  <path style="fill:#ffffff" d="M 447.66016 -0.69140625 C 401.89895 -0.69140625 364.75977 36.445842 364.75977 82.207031 L 364.75977 198.26953 L 331.59766 198.26953 C 258.31444 198.26953 198.95508 257.62579 198.95508 330.91211 L 198.95508 364.07422 L 82.902344 364.07422 C 37.141031 364.07422 -2.8421709e-14 401.21539 0 446.97656 C 0 492.73777 37.141031 529.875 82.902344 529.875 L 198.96094 529.875 L 198.96094 695.67578 L 82.902344 695.67578 C 37.141031 695.67578 0 732.81301 0 778.57422 C 0 824.33543 37.141031 861.47461 82.902344 861.47461 L 198.96094 861.47461 L 198.96094 1027.2754 L 82.902344 1027.2754 C 37.141031 1027.2754 0 1064.4165 0 1110.1777 C 0 1155.9389 37.141031 1193.0801 82.902344 1193.0801 L 198.96094 1193.0801 L 198.96094 1226.2383 L 198.95312 1226.2383 C 198.95312 1299.5215 258.30937 1358.8789 331.5957 1358.8789 L 364.75586 1358.8789 L 364.75586 1474.9395 C 364.75586 1520.7007 401.89699 1557.8418 447.6582 1557.8418 C 493.41941 1557.8418 530.56055 1520.7007 530.56055 1474.9395 L 530.56055 1358.8789 L 696.35938 1358.8789 L 696.35938 1474.9395 C 696.35938 1520.7007 733.50051 1557.8418 779.26172 1557.8418 C 785.04912 1557.8418 790.6984 1557.2456 796.15234 1556.1152 L 796.15234 1950 C 796.15234 2038.32 867.83234 2110 956.15234 2110 L 1948.1523 2110 C 2036.4723 2110 2108.1523 2038.32 2108.1523 1950 L 2108.1523 734.00195 C 2108.1523 645.68196 2036.4723 574.00391 1948.1523 574.00391 L 1359.5684 574.00391 L 1359.5684 529.875 L 1475.6289 529.875 C 1521.3901 529.875 1558.5293 492.73387 1558.5293 446.97266 C 1558.5293 401.21149 1521.3921 364.07031 1475.6309 364.07031 L 1359.5684 364.07031 L 1359.5684 330.91016 C 1359.5684 257.62694 1300.2121 198.26758 1226.9258 198.26758 L 1193.7637 198.26758 L 1193.7637 82.207031 C 1193.7637 36.445842 1156.6245 -0.69140625 1110.8633 -0.69140625 C 1065.1021 -0.69140625 1027.9648 36.445842 1027.9648 82.207031 L 1027.9648 198.26953 L 862.16406 198.26953 L 862.16406 82.207031 C 862.16406 36.445842 825.02684 -0.69140625 779.26562 -0.69140625 C 733.50441 -0.69140625 696.36328 36.445842 696.36328 82.207031 L 696.36328 198.26953 L 530.5625 198.26953 L 530.5625 82.207031 C 530.5625 36.445842 493.42137 -0.69140625 447.66016 -0.69140625 z M 603.50781 529.87109 L 955.00781 529.87109 C 985.20744 529.87109 1010.9669 547.98924 1022.0879 574.00391 L 956.15234 574.00391 C 867.83234 574.00391 796.15234 645.68196 796.15234 734.00195 L 796.15234 1027.2793 L 603.50781 1027.2793 C 563.05328 1027.2793 530.55273 994.78381 530.55273 954.32617 L 530.55273 602.82422 C 530.55273 562.36965 563.05017 529.87109 603.50781 529.87109 z M 1452.1543 734.00195 C 1690.8733 734.00195 1884.1543 927.28291 1884.1543 1166.002 C 1884.1543 1290.481 1831.6423 1402.8015 1747.1953 1481.5215 C 1703.9954 1448.8485 1663.6748 1416.8495 1640.6348 1393.5215 C 1571.8658 1324.7225 1460.4758 1324.7225 1391.6738 1393.5215 C 1339.5458 1445.6825 1327.0321 1522.8007 1353.9121 1586.8027 C 1162.5511 1542.3217 1020.1543 1370.803 1020.1543 1166.002 C 1020.1543 927.28291 1213.4323 734.00195 1452.1543 734.00195 z M 1517.3008 1469.9785 C 1529.8967 1469.9785 1542.537 1474.7878 1552.3125 1484.4043 C 1563.5445 1495.9243 1878.1027 1717.3637 1914.5527 1753.8438 C 1959.3217 1798.9636 1959.3217 1871.6023 1914.5527 1916.4043 C 1869.7537 1961.1733 1797.0822 1961.1733 1751.9922 1916.4043 C 1713.5922 1878.0043 1493.0797 1564.4041 1482.5527 1554.1621 C 1463.3527 1534.6411 1463.3527 1503.6043 1482.5527 1484.4043 C 1492.1527 1474.7878 1504.7049 1469.9785 1517.3008 1469.9785 z M 1036.1523 1790.002 C 1080.3123 1790.002 1116.1543 1825.842 1116.1543 1870.002 C 1116.1543 1914.162 1080.3123 1950.0039 1036.1523 1950.0039 C 991.99244 1950.0039 956.15234 1914.162 956.15234 1870.002 C 956.15234 1825.842 991.99234 1790.002 1036.1523 1790.002 z" />
  <path style="fill:#ffffff" d="m 1532.152,1166.0019 c 0,-44.16 -35.841,-80.0009 -80.001,-80.0009 -44.1599,0 -79.998,35.8409 -79.998,80.0009 0,44.16 35.841,80.001 80.001,80.001 44.16,0 79.998,-35.841 79.998,-80.001 z" />
</svg>
