<?xml version="1.0" encoding="UTF-8"?>
<svg xmlns="http://www.w3.org/2000/svg" width="1536" height="1536" viewBox="0 0 1536 1536">
  <path style="fill:#606060" d="M192 1215.999c0 70.719 57.279 128.001 128.001 128.001h32.001v111.999c0 44.16 35.841 80.001 80.001 80.001s80.001-35.841 80.001-80.001l-0.003-111.999h159.999v111.999c0 44.16 35.841 80.001 80.001 80.001s80.001-35.841 80.001-80.001l-0.003-111.999h159.999v111.999c0 44.16 35.841 80.001 80.001 80.001s80.001-35.841 80.001-80.001v-111.999h32.001c70.719 0 128.001-57.279 128.001-128.001v-32.001h111.999c44.16 0 80.001-35.841 80.001-80.001s-35.841-79.998-80.001-79.998h-112.002v-159.999h111.999c44.16 0 80.001-35.841 80.001-80.001s-35.838-79.998-79.998-79.998h-112.002v-159.999h111.999c44.16 0 80.001-35.841 80.001-80.001s-35.838-80.001-79.998-80.001h-112.002v-32.001c0-70.719-57.279-128.001-128.001-128.001h-32.001l0.003-111.999c0-44.16-35.841-79.998-80.001-79.998s-79.998 35.838-79.998 79.998v112.002h-159.999l-0.003-112.002c0-44.16-35.838-79.998-79.998-79.998s-80.001 35.838-80.001 79.998v112.002h-159.999v-112.002c0-44.16-35.841-79.998-80.001-79.998s-80.001 35.838-80.001 79.998v112.002h-32.001c-70.719 0-128.001 57.279-128.001 128.001v32.001l-111.996-0.003c-44.16 0-80.001 35.841-80.001 80.001s35.841 79.998 80.001 79.998h111.999v159.999l-111.999 0.003c-44.16 0-80.001 35.838-80.001 79.998s35.841 80.001 80.001 80.001h111.999v159.999h-111.999c-44.16 0-80.001 35.841-80.001 80.001s35.841 80.001 80.001 80.001h111.999v31.998zM992.001 614.4v339.201c0 39.039-31.359 70.401-70.401 70.401l-339.201-0.003c-39.039 0-70.401-31.359-70.401-70.401l0.003-339.198c0-39.039 31.359-70.401 70.401-70.401h339.201c39.036 0 70.398 31.362 70.398 70.401z" />
</svg>
